<?xml version="1.0" encoding="utf-8"?>
<!-- Generator: Adobe Illustrator 14.0.0, SVG Export Plug-In . SVG Version: 6.00 Build 43363)  -->
<!DOCTYPE svg PUBLIC "-//W3C//DTD SVG 1.1//EN" "http://www.w3.org/Graphics/SVG/1.1/DTD/svg11.dtd">
<svg version="1.1" id="Ebene_1" xmlns="http://www.w3.org/2000/svg" xmlns:xlink="http://www.w3.org/1999/xlink" x="0px" y="0px"
	 width="200px" height="200px" viewBox="0 0 200 200" enable-background="new 0 0 200 200" xml:space="preserve">
<g>
	<path d="M82.885,9.742H71.498c-2.146,0-4.289,0.677-6.296,1.761l-0.01,0.003v0.003c-1.136,0.614-2.229,1.356-3.251,2.187
		c-1.854,1.506-3.283,3.275-3.85,6.866c0,0,0.022,0.022,0.025,0.024c0.908,0.567,7.076,3.27,7.076,3.27s-7.234,0.966-7.234,2.118
		v11.149v7.581c0,0.892,7.234,3.444,7.234,3.444s-7.234,0.759-7.234,1.911v11.15v7.58c0,0.892,7.234,3.567,7.234,3.567
		s-7.234,0.637-7.234,1.788v11.15v7.581c0,0.892,7.234,3.44,7.234,3.44s-7.234,0.763-7.234,1.915v11.15v7.58
		c0,0.893,7.234,3.356,7.234,3.356s-7.234,0.848-7.234,1.999v11.149v7.58c0,0.892,7.234,3.563,7.234,3.563s-7.234,0.642-7.234,1.794
		v11.148v7.58c0,0.892,7.234,3.894,7.234,3.894s-7.234,1.122-7.234,2.273c0,0,0,3.142,0,3.806c0,6.327,1.695,8.742,4.115,10.708
		c0.982,0.799,2.031,1.51,3.119,2.11v0.007l0.023,0.007c2.042,1.122,4.228,1.829,6.417,1.829h11.254V9.742z"/>
	<rect x="87.034" y="9.742" width="25.313" height="180.021"/>
	<path d="M135.191,23.898c0,0,6.145-2.746,7.05-3.312c0.003-0.002,0.025-0.024,0.025-0.024c-0.567-3.591-1.997-5.36-3.85-6.866
		c-1.015-0.824-2.099-1.56-3.226-2.172V11.52l-0.015-0.004c-2.014-1.091-4.164-1.773-6.317-1.773h-12.362v180.021h12.362l0,0
		c2.156,0,4.309-0.684,6.324-1.776l0.008-0.003v-0.002c1.127-0.611,2.211-1.347,3.226-2.172c2.421-1.966,4.115-4.381,4.115-10.708
		c0-0.664,0-3.806,0-3.806c0-1.164-7.341-2.273-7.341-2.273s7.341-2.993,7.341-3.894v-7.58v-11.148c0-1.164-7.341-1.794-7.341-1.794
		s7.341-2.662,7.341-3.563v-7.58v-11.149c0-1.163-7.341-1.792-7.341-1.792s7.341-2.663,7.341-3.563v-7.58V98.23
		c0-1.164-7.341-1.749-7.341-1.749s7.341-2.707,7.341-3.606v-7.581v-11.15c0-1.163-7.341-1.789-7.341-1.789s7.341-2.666,7.341-3.566
		v-7.58V50.06c0-1.164-7.341-1.829-7.341-1.829s7.341-2.626,7.341-3.526v-7.581V25.975
		C142.532,24.811,135.191,23.898,135.191,23.898z"/>
</g>
</svg>
